<?xml version="1.0" standalone="no"?>
<!DOCTYPE svg PUBLIC "-//W3C//DTD SVG 20010904//EN"
 "http://www.w3.org/TR/2001/REC-SVG-20010904/DTD/svg10.dtd">
<svg version="1.0" xmlns="http://www.w3.org/2000/svg"
 width="512.000000pt" height="512.000000pt" viewBox="0 0 512.000000 512.000000"
 preserveAspectRatio="xMidYMid meet">

<g transform="translate(0.000000,512.000000) scale(0.100000,-0.100000)"
fill="#000000" stroke="none">
<path d="M2325 5109 c-499 -51 -945 -229 -1345 -537 -124 -96 -363 -340 -462
-472 -261 -349 -423 -735 -490 -1165 -31 -200 -31 -550 0 -750 87 -556 329
-1034 726 -1430 444 -443 975 -690 1607 -746 337 -30 750 26 1078 147 253 93
554 268 761 442 760 637 1086 1656 835 2609 -47 180 -91 297 -180 478 -131
268 -269 460 -489 681 -221 220 -412 357 -681 489 -251 124 -480 195 -748 236
-153 23 -473 33 -612 18z m915 -1409 l0 -260 -185 0 c-275 0 -275 0 -275 -269
l0 -171 235 0 c129 0 235 -4 235 -9 0 -5 -11 -116 -25 -247 -14 -132 -25 -247
-25 -256 0 -17 -17 -18 -210 -18 l-210 0 0 -745 0 -745 -307 2 -308 3 -3 743
-2 742 -145 0 -145 0 0 265 0 265 145 0 145 0 0 183 c0 100 5 214 10 252 41
291 216 473 495 514 33 5 176 9 318 10 l257 1 0 -260z"/>
</g>
</svg>
