<?xml version="1.0" standalone="no"?>
<!DOCTYPE svg PUBLIC "-//W3C//DTD SVG 20010904//EN"
 "http://www.w3.org/TR/2001/REC-SVG-20010904/DTD/svg10.dtd">
<svg version="1.0" xmlns="http://www.w3.org/2000/svg"
 width="512.000000pt" height="512.000000pt" viewBox="0 0 512.000000 512.000000"
 preserveAspectRatio="xMidYMid meet">

<g transform="translate(0.000000,512.000000) scale(0.100000,-0.100000)"
fill="#000000" stroke="none">
<path d="M2325 5109 c-486 -50 -924 -220 -1315 -512 -122 -92 -395 -365 -487
-487 -269 -361 -437 -766 -499 -1205 -26 -180 -26 -510 0 -690 39 -278 120
-539 242 -784 129 -259 254 -438 449 -639 221 -229 439 -390 710 -523 260
-127 483 -198 760 -241 201 -31 550 -31 750 0 277 43 513 118 754 238 280 139
449 261 676 489 228 227 350 396 489 676 120 240 204 512 243 784 24 171 24
516 -1 690 -39 273 -117 531 -236 773 -135 276 -266 458 -495 687 -233 233
-400 353 -690 495 -245 120 -469 190 -738 231 -153 23 -473 33 -612 18z m847
-1089 c157 -11 244 -28 347 -66 198 -73 366 -244 439 -447 60 -166 64 -217 69
-824 7 -741 -6 -919 -81 -1103 -71 -175 -232 -335 -408 -407 -171 -69 -332
-83 -978 -83 -659 0 -812 14 -991 89 -182 77 -338 243 -407 434 -65 178 -67
211 -67 947 0 605 2 674 19 765 35 191 99 325 209 442 145 154 334 233 602
252 163 12 1089 12 1247 1z"/>
<path d="M1880 3749 c-272 -33 -439 -176 -498 -429 -15 -67 -17 -145 -17 -760
0 -615 2 -693 17 -760 52 -223 195 -366 418 -418 67 -15 145 -17 760 -17 615
0 693 2 760 17 223 52 366 195 418 418 15 67 17 145 17 760 0 615 -2 693 -17
760 -40 170 -138 302 -272 366 -141 67 -140 67 -861 70 -357 1 -684 -2 -725
-7z m1527 -240 c90 -34 137 -143 99 -232 -18 -44 -78 -95 -121 -103 -173 -32
-285 163 -167 290 49 52 124 70 189 45z m-681 -214 c200 -45 381 -177 487
-356 131 -222 131 -533 0 -759 -49 -83 -190 -224 -273 -273 -227 -132 -533
-132 -760 0 -84 49 -225 190 -273 273 -132 228 -132 533 0 760 49 83 190 224
273 273 160 93 360 123 546 82z"/>
<path d="M2446 3034 c-243 -59 -406 -300 -368 -546 40 -262 289 -448 549 -411
267 39 456 291 415 555 -43 282 -320 469 -596 402z"/>
</g>
</svg>
