<?xml version="1.0" encoding="utf-8"?>
<!-- Generator: Adobe Illustrator 27.9.4, SVG Export Plug-In . SVG Version: 9.03 Build 54784)  -->
<svg version="1.1" id="Capa_1" xmlns="http://www.w3.org/2000/svg" xmlns:xlink="http://www.w3.org/1999/xlink" x="0px" y="0px"
	 viewBox="0 0 512 55" style="enable-background:new 0 0 512 55;" xml:space="preserve">
<g>
	<path d="M16.4,54.5V14.6H0.5V0.5h49.8v14.1H34.6v39.9H16.4z"/>
	<path d="M53.7,54.5v-54h26c5,0,9.4,0.8,13.1,2.5c3.7,1.6,6.5,4,8.5,7.1c2,3.1,3,6.7,3,10.8c0,4.2-1,7.8-3,10.8
		c-2,3-4.8,5.3-8.5,6.9c-3.7,1.6-8,2.4-13.1,2.4H63.8l8.1-7.5v21.1H53.7z M71.9,35.4l-8.1-8.3h14.7c2.5,0,4.4-0.6,5.6-1.7
		c1.2-1.1,1.8-2.7,1.8-4.6c0-2-0.6-3.5-1.8-4.6c-1.2-1.1-3.1-1.7-5.6-1.7H63.8l8.1-8.3V35.4z M86.1,54.5L72.8,34.8h19.3l13.4,19.7
		H86.1z"/>
	<path d="M106.7,54.5l23.6-54h17.9l23.6,54H153L135.5,9.1h7.1l-17.4,45.4H106.7z M120.7,45.1l4.6-13.1h24.8l4.6,13.1H120.7z"/>
	<path d="M185.8,54.5l-22.8-54h19.6l18.6,45.6h-11.6l19.1-45.6h17.9l-22.8,54H185.8z"/>
	<path d="M247,40.8h27v13.7h-44.9v-54H273v13.7h-26V40.8z M245.7,20.6h24.1v13.1h-24.1V20.6z"/>
	<path d="M281.2,54.5v-54h18.2v39.9h24.4v14.1H281.2z"/>
	<path d="M336.8,54.5l-17.7-54h13l15.4,47.8H341l16-47.8h11.6L384,48.3h-6.2l15.7-47.8h12l-17.7,54h-13.4l-13.7-42h3.5l-14,42H336.8
		z"/>
	<path d="M423.4,44.5h29.4v10H411v-54h40.8v10h-28.4V44.5z M422.5,22.3h26V32h-26V22.3z"/>
	<path d="M461.9,54.5v-54h26.4c6.8,0,11.9,1.3,15.3,3.9c3.4,2.6,5.1,6,5.1,10.2c0,2.8-0.7,5.3-2.1,7.4s-3.3,3.7-5.7,4.8
		c-2.4,1.1-5.2,1.7-8.3,1.7l1.5-3.2c3.4,0,6.4,0.6,9,1.7c2.6,1.1,4.7,2.7,6.1,4.9s2.2,4.8,2.2,7.9c0,4.6-1.8,8.2-5.5,10.8
		c-3.7,2.6-9,3.9-16.1,3.9H461.9z M474.4,45.1h14.6c3.2,0,5.7-0.5,7.4-1.6c1.7-1.1,2.5-2.7,2.5-5.1c0-2.3-0.8-3.9-2.5-5.1
		c-1.7-1.1-4.1-1.7-7.4-1.7h-15.5v-9.1h13.3c3,0,5.4-0.5,7-1.6c1.6-1.1,2.4-2.7,2.4-4.8c0-2.1-0.8-3.7-2.4-4.7
		c-1.6-1.1-3.9-1.6-7-1.6h-12.4V45.1z"/>
</g>
</svg>
