<?xml version="1.0" standalone="no"?>
<!DOCTYPE svg PUBLIC "-//W3C//DTD SVG 20010904//EN"
 "http://www.w3.org/TR/2001/REC-SVG-20010904/DTD/svg10.dtd">
<svg version="1.0" xmlns="http://www.w3.org/2000/svg"
 width="512.000000pt" height="512.000000pt" viewBox="0 0 512.000000 512.000000"
 preserveAspectRatio="xMidYMid meet">

<g transform="translate(0.000000,512.000000) scale(0.100000,-0.100000)"
fill="#000000" stroke="none">
<path d="M2375 5114 c-369 -38 -643 -112 -932 -253 -259 -127 -452 -263 -661
-465 -225 -219 -376 -425 -511 -697 -185 -373 -266 -717 -266 -1139 0 -422 81
-766 266 -1139 134 -272 284 -475 510 -696 331 -323 722 -540 1169 -650 216
-53 364 -70 610 -70 413 0 758 79 1118 255 261 127 452 262 661 465 226 221
376 424 510 696 127 256 207 513 247 794 26 180 26 510 0 690 -66 466 -259
911 -552 1271 -97 120 -315 331 -434 420 -350 263 -747 431 -1175 495 -125 19
-463 33 -560 23z m1625 -1282 c0 -5 18 -21 40 -38 22 -16 52 -48 67 -71 15
-24 33 -43 40 -43 11 0 13 -207 13 -1120 0 -913 -2 -1120 -13 -1120 -7 0 -25
-19 -40 -42 -15 -24 -45 -56 -67 -72 -22 -17 -40 -33 -40 -38 0 -4 -645 -8
-1434 -8 l-1434 0 -37 34 c-20 19 -44 40 -54 48 -9 8 -31 32 -48 52 l-33 38 0
1108 0 1108 33 38 c17 20 39 43 47 50 8 7 31 29 50 47 l35 34 1438 2 c790 0
1437 -3 1437 -7z"/>
<path d="M1364 3491 c4 -5 40 -28 80 -50 41 -22 78 -45 81 -51 4 -6 21 -17 38
-25 18 -8 59 -33 92 -54 33 -22 88 -56 122 -76 34 -19 65 -40 68 -45 4 -6 21
-17 38 -25 18 -8 59 -33 92 -54 33 -22 87 -56 121 -75 34 -19 67 -42 74 -51 7
-8 17 -15 22 -15 5 0 36 -18 69 -40 33 -22 62 -40 64 -40 2 0 31 -18 64 -40
33 -22 64 -40 69 -40 5 0 15 -7 22 -15 7 -9 28 -23 46 -31 31 -15 37 -15 68 0
18 8 39 22 46 31 7 8 18 15 24 15 6 0 37 18 69 40 31 22 61 40 65 40 4 0 33
18 65 40 31 22 60 40 63 40 2 0 17 8 32 18 89 61 154 102 160 102 4 0 33 18
65 40 31 22 60 40 63 40 4 0 50 28 103 63 149 98 210 137 216 137 3 0 26 15
52 34 27 18 67 43 90 55 23 11 44 25 48 31 4 7 -385 10 -1195 10 -721 0 -1199
-4 -1196 -9z"/>
<path d="M1300 3147 c0 -7 0 -352 0 -767 l-1 -755 1261 0 1261 0 -1 764 c0
420 -1 765 -3 767 -4 4 -41 -18 -181 -107 -146 -93 -287 -179 -295 -179 -5 0
-14 -7 -21 -15 -6 -8 -40 -30 -73 -50 -85 -49 -94 -54 -160 -97 -32 -21 -61
-38 -66 -38 -4 0 -16 -9 -26 -20 -10 -11 -23 -20 -29 -20 -6 0 -37 -18 -69
-40 -31 -22 -60 -40 -63 -40 -2 0 -17 -8 -32 -18 -95 -65 -152 -101 -170 -106
-11 -4 -26 -13 -32 -21 -17 -20 -62 -19 -91 3 -29 20 -44 30 -126 77 -34 19
-65 40 -68 45 -4 6 -21 17 -38 25 -38 19 -55 28 -128 78 -31 20 -59 37 -62 37
-9 0 -96 60 -102 71 -4 5 -12 9 -20 9 -8 0 -51 25 -97 56 -45 31 -89 59 -97
62 -14 5 -67 38 -163 104 -15 10 -30 18 -34 18 -4 0 -27 15 -53 33 -25 18 -68
46 -96 61 -27 16 -59 36 -70 46 -28 24 -55 32 -55 17z"/>
</g>
</svg>
