<?xml version="1.0" standalone="no"?>
<!DOCTYPE svg PUBLIC "-//W3C//DTD SVG 20010904//EN"
 "http://www.w3.org/TR/2001/REC-SVG-20010904/DTD/svg10.dtd">
<svg version="1.0" xmlns="http://www.w3.org/2000/svg"
 width="512.000000pt" height="512.000000pt" viewBox="0 0 512.000000 512.000000"
 preserveAspectRatio="xMidYMid meet">

<g transform="translate(0.000000,512.000000) scale(0.100000,-0.100000)"
fill="#000000" stroke="none">
<path d="M2325 5109 c-486 -50 -924 -220 -1315 -512 -122 -92 -395 -365 -487
-487 -269 -361 -437 -766 -499 -1205 -26 -180 -26 -510 0 -690 39 -278 120
-539 242 -784 129 -259 254 -438 449 -639 221 -229 439 -390 710 -523 260
-127 483 -198 760 -241 201 -31 550 -31 750 0 277 43 513 118 754 238 280 139
449 261 676 489 228 227 350 396 489 676 120 240 204 512 243 784 24 171 24
516 -1 690 -39 273 -117 531 -236 773 -135 276 -266 458 -495 687 -233 233
-400 353 -690 495 -245 120 -469 190 -738 231 -153 23 -473 33 -612 18z m595
-1004 c412 -92 746 -319 972 -660 392 -592 323 -1380 -166 -1892 -460 -483
-1156 -618 -1755 -342 -46 22 -91 39 -100 39 -9 0 -191 -47 -406 -104 -214
-57 -391 -102 -393 -101 -1 1 46 180 106 398 l109 396 -18 28 c-11 15 -40 77
-65 137 -96 227 -138 487 -116 724 25 265 101 489 240 702 237 366 605 609
1042 686 105 18 448 12 550 -11z"/>
<path d="M2386 3854 c-106 -19 -236 -64 -343 -118 -487 -245 -768 -780 -688
-1311 27 -179 79 -326 166 -475 l45 -75 -63 -229 c-34 -126 -61 -231 -59 -233
1 -2 108 25 237 58 l234 62 77 -42 c106 -57 242 -108 357 -134 78 -17 128 -21
271 -21 156 0 186 3 282 26 498 125 854 493 959 991 28 131 31 350 5 479 -50
261 -163 473 -351 664 -190 192 -420 313 -682 359 -107 19 -340 18 -447 -1z
m-183 -568 c21 -23 157 -339 157 -365 0 -21 -26 -64 -79 -130 -28 -35 -51 -70
-51 -79 0 -28 108 -177 184 -253 88 -88 184 -155 290 -205 108 -49 114 -48
188 43 96 119 103 125 135 117 16 -4 102 -44 193 -88 l165 -81 -1 -70 c-1
-123 -55 -202 -182 -267 -60 -30 -75 -33 -173 -36 -100 -4 -113 -2 -215 32
-146 49 -310 132 -414 210 -173 130 -391 381 -485 559 -63 119 -78 180 -73
296 4 110 27 171 95 257 53 65 90 83 176 84 59 0 71 -3 90 -24z"/>
</g>
</svg>
